<svg preserveAspectRatio="none" overflow="visible" style="display: block;" width="29.3621" height="48.7411" viewBox="0 0 29.3621 48.7411" fill="none" xmlns="http://www.w3.org/2000/svg">
<g id="Layer_1" clip-path="url(#clip0_0_9)">
<path id="Vector" d="M6.36567 0.163305C4.16045 2.86691 2.47975 5.96251 1.39722 9.28433C0.328088 12.5614 -0.149562 16.0557 0.0401589 19.5007C0.194168 22.3118 0.86377 25.5127 3.03328 27.4906C4.08679 28.4515 5.4818 29.007 6.91698 28.9107C8.49724 28.8054 9.90341 27.9901 11.0328 26.9126C12.1622 25.8352 13.1108 24.4084 13.7514 22.939C14.392 21.4696 14.8652 19.429 13.5527 18.0851C12.5885 17.0972 11.0908 17.0793 9.85431 17.4758C8.49055 17.9148 7.34776 18.7772 6.45719 19.8882C4.5756 22.2379 3.59352 25.2081 3.54218 28.2118C3.49085 31.2156 4.34347 34.1768 6.12015 36.5421C8.15351 39.248 11.169 41.031 14.3764 41.9785C18.0904 43.076 22.0299 43.0312 25.8422 42.5743C26.8444 42.4533 27.8443 42.3077 28.8398 42.1465C29.2348 42.0815 29.3978 41.4633 29.0853 41.2102C27.976 40.3187 26.8689 39.4272 25.7596 38.5334C25.5252 38.3453 25.1994 38.3027 24.9695 38.5334C24.7619 38.7418 24.7485 39.1181 24.9695 39.3264C26.1167 40.3993 27.264 41.4722 28.4112 42.5429V41.75C26.5877 43.9765 24.5298 45.9992 22.2754 47.7844C22.0388 47.9725 22.079 48.3802 22.2754 48.5773C22.5098 48.8125 22.8267 48.7655 23.0656 48.5773C25.3199 46.7921 27.3778 44.7694 29.2014 42.5429C29.3866 42.3167 29.4402 41.974 29.2014 41.75C28.0541 40.6771 26.9069 39.6041 25.7596 38.5334L24.9695 39.3264C26.0788 40.2179 27.1859 41.1094 28.2952 42.0031L28.5407 41.0668C24.8423 41.6671 21.0211 42.0681 17.2914 41.4857C14.2447 41.0108 11.2091 39.8662 8.84767 37.8301C6.70717 35.9844 5.33449 33.507 4.84121 30.7228C4.37919 28.1021 4.72515 25.282 5.87686 22.8785C6.44156 21.7026 7.19152 20.5288 8.18253 19.6664C9.05078 18.9116 10.2516 18.3359 11.3765 18.3449C11.8542 18.3494 12.3296 18.477 12.6689 18.7862C13.1443 19.2207 13.3228 19.8546 13.2871 20.5131C13.2447 21.2814 12.9479 22.0385 12.622 22.7262C12.2961 23.4139 11.9189 24.0612 11.4837 24.675C10.6757 25.8128 9.61771 26.8701 8.32315 27.4301C7.17813 27.9273 5.84338 27.9184 4.74747 27.3405C2.52662 26.169 1.59141 23.3287 1.28116 20.9791C0.870466 17.8835 1.14947 14.6445 1.88826 11.6206C2.65607 8.47572 3.97073 5.47868 5.77866 2.79747C6.20943 2.16133 6.66476 1.54311 7.15134 0.947283C7.34106 0.71433 7.37901 0.385059 7.15134 0.154345C6.95492 -0.0427696 6.55316 -0.0808485 6.36121 0.154345L6.36567 0.163305Z" fill="#161845"/>
</g>
<defs>
<clipPath id="clip0_0_9">
<rect width="29.3621" height="48.7411" fill="white"/>
</clipPath>
</defs>
</svg>
