<svg width="183" height="99" viewBox="0 0 183 99" fill="none" xmlns="http://www.w3.org/2000/svg">
<rect width="183" height="99" fill="#D4D4D4"/>
<g id="Collection">
<rect width="1440" height="5273.38" transform="translate(-239 -1145.71)" fill="#EDED86"/>
<g id="Frame 2085661825">
<rect width="1440" height="668" transform="translate(-239 -19.8906)" fill="white"/>
<g id="Layer_1" clip-path="url(#clip0_758_2217)">
<path id="Vector" d="M181.887 92.3406C182.755 93.8493 183.35 95.4189 182.786 97.1409C182.527 97.9409 181.132 98.0019 180.957 98.6114C179.837 98.9772 178.64 98.9924 177.413 98.9924H162.332L157.989 98.9771H132.071L126.546 98.9543L115.451 98.9238L109.514 98.9086H57.1839L32.1961 98.8857L5.98901 98.84C4.39631 98.84 3.25323 98.5962 1.92725 97.659C1.34809 97.2475 0.97468 96.8818 0.601273 96.1503C0.433621 95.8227 -0.137921 95.6322 0.0221109 95.0455C0.906095 91.891 1.96535 88.9575 3.3904 86.0012C4.62493 83.441 6.07283 81.0714 7.45977 78.5722L8.80099 76.1568C9.63163 74.6558 10.3708 73.1242 10.7519 71.4251C11.331 71.326 11.9559 71.1813 12.4436 70.8765C13.6096 70.145 15.8957 69.8936 16.8331 70.6708L25.6577 70.6174L45.6616 70.5641L59.5691 70.5793H66.2524L71.2743 70.5717H77.4165L82.6365 70.6327C83.0938 70.0383 83.4367 69.3069 83.9092 68.8116C87.4375 65.0781 88.3443 63.7675 93.0767 61.4436L90.6686 53.6945L89.5941 50.5782C88.4663 49.2829 87.2394 48.1933 86.2258 46.8522L83.1624 42.8139L80.96 39.7585C79.5426 37.7927 77.005 33.7772 76.0448 31.3542C75.0693 32.2228 73.9567 32.8172 72.8137 32.5505C70.9771 32.1238 69.8721 31.0799 69.0491 29.4798C68.6528 28.7102 68.2566 27.9864 68.3251 27.0263C68.4776 24.8929 68.8967 23.6052 70.8475 22.668L66.4581 17.1972C65.5436 16.0543 64.431 15.1095 63.387 14.0732C61.7867 12.4807 60.6665 11.8559 58.487 11.0787C52.9164 9.08244 54.7682 7.55855 53.8308 6.36991L51.9943 4.05358C51.5142 3.45164 51.3923 2.00394 52.2991 1.72964C52.9316 1.53153 53.4193 1.69916 53.6708 0.838158C53.7851 0.434326 54.3338 0.21336 54.791 0.396228C55.9951 0.891495 55.0273 -0.899085 58.0145 0.640052C58.2889 0.617193 59.0205 0.358131 59.2338 0.548618C61.4743 2.49921 61.5276 2.5754 63.3489 5.02888L65.1931 7.52045C65.818 8.35859 66.9534 8.86148 67.7536 9.53961C69.2472 10.8121 70.718 11.8407 72.3336 12.9455C73.1413 13.5017 74.0101 14.2789 74.6426 15.018L77.3479 18.2258C78.2166 16.4048 80.0608 15.0104 82.126 14.6066C82.2022 14.0504 82.4003 10.614 83.4824 11.3302C83.9473 10.9949 84.6941 10.4387 85.2885 10.3168C88.1005 9.75296 89.9599 12.5874 89.9523 13.3189C89.9294 14.6904 89.4798 15.9171 88.7559 17.1743C91.263 19.5897 93.3206 22.3175 94.2122 25.7005C94.6161 27.2321 93.9302 29.1293 92.5356 29.7922C92.0327 30.0284 91.5526 30.0818 90.9277 30.2799L92.1089 32.0781C92.6042 32.8324 92.97 33.541 93.3663 34.4553C97.0927 35.0878 97.6109 34.2268 101.764 35.4154C106.016 36.6269 110.49 39.789 111.336 44.3683C111.724 46.4484 112.242 48.7724 113.149 50.662C113.812 52.0564 114.422 53.4812 114.475 55.0508L114.643 60.1635C114.658 60.6435 114.65 61.0931 114.65 61.5655V66.701C114.65 67.5925 114.948 68.1944 115.938 68.3392L119.276 68.8345L123.765 69.3374C124.961 69.4745 126.15 69.5507 127.339 69.6879L130.494 70.0612L132.963 70.2593C133.549 70.305 134.007 70.2593 134.571 70.1984C136.468 69.985 138.381 69.8021 140.332 69.7793L148.082 69.6879L153.774 69.665H165.518C168.505 69.6726 169.419 71.9356 170.585 74.3891C171.843 73.589 172.963 72.8118 174.121 71.8975C174.746 71.4022 174.975 70.4498 175.463 69.7564C175.988 69.0173 177.391 68.0954 178.351 68.5068C179.532 69.0097 179.54 70.8003 179.379 71.7756C178.907 74.7015 177.444 77.1778 175.935 79.6313L175.097 80.9952C175.607 81.7419 176.141 82.5343 176.598 83.3648C177.886 85.6964 179.265 87.8527 180.591 90.1538L181.856 92.3406H181.887ZM62.4497 11.5512C63.4937 12.2826 64.2253 13.1513 65.0483 13.9818C66.5953 15.5361 67.845 17.182 69.1101 18.9878L71 21.6927C72.5317 23.8871 73.8424 25.8301 75.8847 27.4226C76.2734 27.7273 76.7306 27.8035 77.0735 28.314L78.59 26.8816L80.2437 25.5024C80.4952 25.2891 80.9067 25.0834 81.3106 24.8319C80.2361 23.2318 79.1768 21.7232 77.8661 20.3364C75.3589 17.7001 73.7662 15.1476 70.7409 13.1132C69.674 12.3969 68.7519 11.6045 67.7841 10.7587C66.6029 9.7301 65.2236 8.8691 64.21 7.66522C63.0441 6.28609 62.0229 4.87649 60.9789 3.42116C60.4836 2.72779 59.9959 2.51445 59.1881 2.30872C58.0831 2.0268 57.4201 0.8153 56.0027 0.914353L58.2431 2.81161C58.6089 3.124 58.8985 3.54308 58.9595 4.16025C57.283 3.21544 55.9875 1.7525 54.4024 1.01341C52.9316 2.11823 56.841 3.79452 57.443 5.21174C56.1856 5.13555 55.4159 4.48789 54.5777 3.75642L53.305 2.64398C52.6878 2.11061 51.8495 3.15448 55.3245 5.88226C56.0103 6.42324 57.0543 7.32234 57.2982 8.0081C57.3287 8.09191 56.9934 8.35859 56.9096 8.31288L55.4235 7.50521C55.896 9.83677 59.211 9.27293 62.4497 11.5512ZM90.0513 33.16C90.7982 34.0363 91.6974 34.6611 92.7947 34.3944C91.9641 33.2667 91.2478 32.2762 90.6153 31.1104C90.4095 30.737 90.1733 30.577 89.6627 30.3789C89.9294 29.9065 90.6153 29.3808 91.2935 29.3198C92.6271 29.1979 93.6254 28.1312 93.4577 26.6301C93.1377 23.7576 90.4248 20.0621 88.512 17.8525L86.9422 18.9497C88.3367 20.4355 89.6856 24.07 87.849 25.6701L85.6924 24.5576C85.3952 25.4186 85.5628 26.1577 86.0125 26.7749C86.4697 27.3997 86.9879 27.5597 87.9481 27.674L87.0793 29.5636L88.07 30.8437L90.0513 33.1676V33.16ZM104.812 67.4934C106.565 68.103 111.618 68.4383 113.408 67.8592L113.187 64.2247C113.157 63.7675 113.126 63.3103 113.119 62.8151L113.05 57.1386C113.027 54.9441 112.441 52.925 111.831 50.8296L111.099 48.3076C110.863 47.4923 110.284 46.616 110.246 45.7931C110.071 42.1282 107.495 39.1108 104.287 37.5946C103.677 37.305 103.037 36.8783 102.359 36.7259C101.071 36.4364 99.7447 35.9411 98.4416 35.8497L91.8117 35.3697L93.0996 37.3203C93.3434 37.6936 93.6635 38.4708 93.3434 38.7375C92.5661 38.8061 92.1165 38.1356 91.7126 37.6403L84.8465 29.1446C83.9549 28.0397 83.3453 26.8587 82.6061 25.6624C79.977 26.9044 78.4224 28.9388 76.563 31.0723L77.3098 31.9942L79.9084 35.7887L84.1454 41.6786L85.3418 43.3016C86.6754 45.1074 87.9405 46.9284 89.5484 48.4828L91.5221 50.4029C92.1318 50.9972 92.6423 51.523 92.9395 52.3307C92.1394 52.445 91.6669 52.1707 91.0192 51.744C92.2842 54.8984 93.252 57.9462 93.9302 61.2759C94.5017 62.0912 95.7287 63.3256 96.5136 63.8132C97.992 64.7276 100.743 66.0915 102.328 66.6401L104.805 67.5011L104.812 67.4934ZM44.991 87.0755C48.245 86.9917 51.3542 86.9917 54.5929 86.9688L61.9467 86.9231H63.3718C68.3633 86.9079 73.2099 86.4964 78.1176 85.9478C79.3597 85.8107 80.5409 85.6659 81.783 85.4297L87.9023 84.2487L91.1639 83.601L95.6982 82.6029C96.605 82.4048 97.3137 81.879 98.0529 81.4142C99.9504 80.2104 101.833 79.136 103.502 77.6197C104.431 76.774 105.529 76.1111 106.405 75.212C107.281 74.3129 107.853 73.109 108.653 72.1337C109.278 71.3641 109.621 70.6936 110.04 69.6117L107.792 69.345C106.809 69.2307 105.62 69.2307 104.706 68.8954L101.025 67.5468L98.3044 66.2896C96.3459 65.3905 94.8142 64.3161 93.4806 62.4493C89.053 65.1543 87.2241 66.8839 84.0768 70.7698C83.7796 71.1356 83.2614 71.7146 82.888 71.7756L80.8152 72.1032C78.9406 72.4004 77.1574 72.789 75.3056 73.1471L71.4724 73.8862C69.3387 74.2976 67.3954 75.0748 65.3226 75.7453C62.1296 76.774 58.9442 77.3378 55.6217 77.4064L53.4651 77.4521L50.0663 77.4369L47.7877 77.475L39.1079 77.8559L35.0614 78.1607C33.5525 78.275 32.219 78.3664 30.7025 78.3817C30.5882 81.1704 31.3273 85.1173 32.5238 87.6089C34.627 88.0661 36.0445 87.2965 39.1308 87.2203L45.0062 87.0679L44.991 87.0755ZM144.881 84.2106L147.023 84.4697L152.906 85.1706C156.914 85.6507 158.141 84.8049 161.867 85.3688C162.515 83.1439 162.401 82.2981 162.576 80.0961C162.652 79.0903 162.508 77.9017 162.416 76.934C160.983 76.8654 159.894 76.6368 158.636 76.3625L154.445 75.4482L148.844 74.13L145.803 73.4519L143.624 73.0099L132.551 71.3641L127.598 70.8384L121.959 70.145C120.739 69.9926 119.581 69.8479 118.377 69.6193C113.241 68.644 115.954 68.7964 111.176 69.5507C110.924 70.4574 110.642 71.3946 110.071 72.1718L107.678 75.4482C106.931 76.4692 103.563 79.6084 102.351 80.5151C101.223 81.3609 100.095 82.0467 98.754 82.7248C101.33 82.3438 102.618 82.9534 105.308 82.8772L111.762 82.6867H114.353L119.208 82.8467L122.492 83.0905C123.81 83.1896 125.098 83.2048 126.424 83.2277L133.976 83.3496C135.386 83.3725 136.735 83.4258 138.107 83.5706L140.751 83.8372L142.656 84.0125L144.881 84.1877V84.2106ZM170.113 84.7516C170.89 84.8202 171.286 84.4316 171.683 83.8525L173.634 80.9875C175.264 78.595 179.303 72.2556 178.023 69.3983C175.623 70.0079 176.636 71.707 174.243 73.3071L172.018 74.7929C170.989 75.4787 170.052 76.2178 169.061 76.934C168.292 77.4902 167.499 77.955 166.668 78.4807C165.99 78.9151 165.182 78.976 164.199 79.0827C163.986 81.1095 164.192 82.0543 163.811 84.2411C167.263 84.9421 167.484 84.523 170.105 84.744L170.113 84.7516ZM164.009 78.1379C165.106 78.1683 165.975 77.6959 166.851 77.094L169.877 75.0139L168.833 72.888C167.636 70.4574 166.546 71.0746 164.923 71.0746L146.863 71.0213L140.538 70.9374C140.187 70.9374 139.814 71.0289 139.646 71.1965C141.94 71.4708 144.02 71.8442 146.222 72.3242L149.019 72.9338L150.101 73.1852L157.707 74.9224L160.717 75.5472L163.308 76.012C164.161 76.1644 163.453 77.414 164.009 78.1226V78.1379ZM98.8912 83.9058L96.2011 83.9896C95.5991 84.0125 94.8294 84.0125 94.2808 84.0201L80.1827 86.9612L75.4885 87.487C72.5774 87.8146 69.7197 88.1346 66.801 88.1956L62.282 88.2946H60.5065L57.2982 88.2794H54.9282L51.7352 88.3327L44.61 88.5004L42.8191 88.4851L33.5983 89.148C33.2172 89.1785 31.6855 89.0185 31.3197 88.5613C31.1978 88.4166 31.3426 87.9365 31.2816 87.7537L30.07 84.0734C29.849 83.4105 28.9345 83.9287 28.6068 84.1573C27.5857 84.8659 26.1987 85.1326 25.0861 85.6354C22.457 86.8317 18.7839 87.4413 15.911 87.4641L12.9313 87.4794C12.2379 87.4794 9.18964 88.3251 7.97035 86.6641C6.75106 85.003 9.90597 82.1076 12.6341 81.8867L16.9169 81.5285C18.7763 81.3761 20.3995 78.8541 22.015 77.5588C23.6306 76.2635 27.5399 74.7319 28.7287 77.5969L30.3672 77.4521L33.4687 77.0711L41.577 76.5378L43.7336 76.4463C52.5125 76.0654 58.1288 77.155 66.7553 74.191C68.5614 73.5738 70.3141 73.0404 72.204 72.7204L75.0007 72.248C75.0541 72.2404 75.3361 72.0423 75.3284 72.0499C75.3284 72.0499 75.2446 71.9661 75.1608 71.8746H60.2931H57.0162H37.9649L33.8955 71.8594L22.1141 71.8061C20.0261 71.7984 17.9685 71.8518 15.911 71.5851C14.6612 71.4251 13.4953 70.9908 12.5884 72.3166L11.4758 73.9548C10.5156 75.3568 10.8509 75.2577 10.0355 76.7664L9.27346 78.1836L8.3971 79.7303L6.04997 83.9668C5.1355 85.6202 4.23628 87.2508 3.54281 89.0185L2.6512 91.2739L1.64529 94.0702C1.36333 94.855 1.26426 95.6246 1.90439 96.257C4.05338 98.36 8.36662 97.9333 11.2777 97.9257L24.9718 97.8876L97.3366 97.8495L144.996 97.7733L150.459 97.758H152.578H162.096H165.426L176.126 97.6971C178.038 97.6895 179.799 97.1256 181.711 96.897C182.717 94.7636 179.867 91.2053 178.747 89.2775L176.918 86.1231L174.518 81.8105L172.849 84.3173C172.132 85.3916 171.126 86.0088 169.717 85.8488C168.833 85.7497 167.842 85.9326 166.905 85.9174C165.861 85.9021 164.718 85.5059 163.635 85.3535C163.315 85.9555 162.889 86.6336 162.317 87.0527C161.105 86.4812 159.917 86.466 158.667 86.5269L156.373 86.6336C152.723 86.8012 152.311 86.3364 148.783 85.9859L143.357 85.445L135.249 84.7668L123.551 84.4011L120.716 84.1877L116.022 83.9744C114.582 83.9058 113.157 83.8906 111.694 83.9211L107.159 84.0125C106.077 84.0353 104.927 84.2335 103.829 84.0658C102.199 83.822 100.629 83.8525 98.8912 83.9058ZM75.9305 71.9127C75.9305 71.867 75.8923 71.8213 75.839 71.8213C75.7857 71.8213 75.7476 71.8594 75.7476 71.9127C75.7476 71.9661 75.7857 72.0042 75.839 72.0042C75.8923 72.0042 75.9305 71.9661 75.9305 71.9127ZM18.7306 86.0469L20.7348 85.7269C21.9693 85.5288 23.0209 85.1478 24.1412 84.7211C25.6196 84.1573 27.0522 83.8068 28.4315 82.9305C28.8126 82.6867 29.3917 82.6867 29.9328 82.7781C29.6508 81.2695 29.5137 79.8218 29.7956 78.2293L28.2944 78.8236C28.1724 78.877 27.7686 78.7703 27.7914 78.6407C27.8067 78.5493 27.8829 78.1836 27.8295 78.0769C27.4942 77.4445 26.1225 77.0026 25.1928 77.3454C20.7043 79.0141 21.1691 82.5343 16.2996 82.8162L14.3335 82.9305C12.7408 83.0219 11.4072 83.2277 10.127 84.2868C9.68497 84.6601 9.07533 85.2926 9.20488 85.9555C9.98218 86.5345 10.9271 86.5726 11.8416 86.3593C13.1295 86.0621 16.4978 86.4126 18.7382 86.0545L18.7306 86.0469Z" fill="black"/>
<path id="Vector_2" d="M98.8923 83.9057C100.63 83.8524 102.2 83.8219 103.83 84.0657C104.935 84.2334 106.079 84.0353 107.161 84.0124L111.695 83.921C113.15 83.8905 114.583 83.9057 116.023 83.9743L120.718 84.1877L123.552 84.401L135.25 84.7667L143.358 85.4449L148.784 85.9859C152.312 86.3364 152.724 86.8088 156.374 86.6335L158.668 86.5268C159.918 86.4659 161.107 86.4811 162.318 87.0526C162.89 86.6335 163.309 85.9554 163.637 85.3534C164.719 85.5058 165.862 85.902 166.906 85.9173C167.843 85.9325 168.834 85.7497 169.718 85.8487C171.128 86.0087 172.133 85.3992 172.85 84.3172L174.519 81.8104L176.919 86.123L178.748 89.2775C179.868 91.2052 182.718 94.7635 181.713 96.897C179.8 97.1255 178.039 97.6894 176.127 97.697L165.427 97.758H162.097H152.579H150.461L144.997 97.7732L97.3377 97.8494L24.9729 97.8875L11.2788 97.9256C8.36776 97.9332 4.06215 98.3599 1.90553 96.2569C1.25778 95.6245 1.35685 94.8626 1.64643 94.0701L2.65234 91.2738L3.54395 89.0184C4.23742 87.2507 5.13664 85.6201 6.05111 83.9667L8.39824 79.7303L9.27461 78.1835L10.0367 76.7663C10.8444 75.2576 10.5168 75.3643 11.4769 73.9547L12.5895 72.3165C13.4964 70.9831 14.6623 71.4174 15.9121 71.585C17.9697 71.8517 20.0272 71.7907 22.1152 71.806L33.8966 71.8593L37.966 71.8746H57.0174H60.2942H75.1619C75.2458 71.9812 75.322 72.0651 75.3296 72.0574C75.3296 72.0498 75.0552 72.2403 75.0019 72.2555L72.2051 72.7279C70.3152 73.048 68.5625 73.5813 66.7564 74.1985C58.13 77.1549 52.506 76.0653 43.7348 76.4539L41.5781 76.5453L33.4699 77.0787L30.3683 77.4597L28.7299 77.6044C27.5487 74.7395 23.6165 76.2863 22.0162 77.5663C20.4159 78.8464 18.7774 81.3837 16.918 81.5361L12.6353 81.8942C9.90711 82.1228 6.80555 85.0868 7.97149 86.6716C9.13744 88.2565 12.239 87.4869 12.9325 87.4869L15.9121 87.4717C18.7851 87.4564 22.4582 86.8469 25.0873 85.643C26.1999 85.1325 27.5868 84.8734 28.608 84.1648C28.9356 83.9362 29.8501 83.4105 30.0711 84.081L31.2828 87.7612C31.3437 87.9441 31.2066 88.4241 31.3209 88.5689C31.6867 89.026 33.2184 89.186 33.5994 89.1556L42.8203 88.4927L44.6111 88.5079L51.7363 88.3403L54.9294 88.2946H57.2993H60.5076H62.2832L66.8022 88.1955C69.7208 88.1346 72.5786 87.8145 75.4896 87.4869L80.1839 86.9611L94.2819 84.02C94.8306 84.02 95.6003 84.0124 96.2023 83.9896L98.8923 83.9057ZM68.2348 94.6035L78.8731 94.6568C79.1551 94.4054 79.1475 93.7425 78.9493 93.4758C78.7512 93.2091 78.2864 93.0339 77.8672 93.0339L68.7683 92.9958H63.8073H61.0944L59.6998 93.0415L51.1267 93.0186L47.888 93.0491H45.0912L40.5341 93.011L38.3927 93.0415L31.679 93.0796L26.8171 93.0567L24.0661 93.1329L21.597 93.1558L17.5124 93.2015L14.4718 93.2167L12.2542 93.1863L8.80213 93.2396C8.54303 93.2396 8.10866 93.613 8.1239 93.8492C8.13914 94.0854 8.53541 94.4359 8.84785 94.4359L24.31 94.5502L33.4699 94.6035L49.2063 94.6492L54.5712 94.5578L59.4712 94.6416L68.2501 94.5883L68.2348 94.6035ZM103.579 94.0701C102.162 93.6663 100.775 93.5292 99.2734 93.4834L96.8043 93.3996L93.0855 93.3158H91.3327L84.6648 93.2701C83.9179 93.2701 81.1898 93.3387 80.885 93.8492C80.3515 94.7559 83.8722 94.7559 84.3066 94.7559L98.0769 94.6645C99.9592 94.6492 101.674 94.4206 103.579 94.0625V94.0701Z" fill="#8E94CA"/>
<path id="Vector_3" d="M44.9917 87.0755L39.1163 87.2279C36.0299 87.3117 34.6049 88.0812 32.5092 87.6165C31.3204 85.1249 30.5812 81.178 30.6879 78.3893C32.1968 78.374 33.538 78.2826 35.0469 78.1683L39.0934 77.8635L47.7732 77.4825L50.0518 77.4444L53.4505 77.4597L55.6071 77.414C58.9297 77.3454 62.1151 76.7892 65.3081 75.7529C67.3809 75.0824 69.3241 74.3052 71.4579 73.8938L75.291 73.1547C77.1428 72.7966 78.926 72.408 80.8007 72.1108L82.8735 71.7832C83.2469 71.7222 83.7651 71.1431 84.0623 70.7774C87.2096 66.8914 89.0385 65.1618 93.4661 62.4569C94.7997 64.3161 96.339 65.3904 98.2899 66.2971L101.01 67.5543L104.691 68.903C105.598 69.2383 106.794 69.2382 107.777 69.3525L110.026 69.6192C109.606 70.7088 109.263 71.3793 108.639 72.1413C107.838 73.1242 107.267 74.3205 106.391 75.2196C105.514 76.1187 104.424 76.7815 103.487 77.6273C101.818 79.1436 99.9435 80.2256 98.0384 81.4218C97.2992 81.8866 96.5905 82.4123 95.6836 82.6105L91.1494 83.6086L87.8878 84.2563L81.7685 85.4373C80.5264 85.6735 79.3452 85.8183 78.103 85.9554C73.1954 86.5116 68.3487 86.9155 63.3572 86.9307H61.9322L54.5784 86.984C51.3473 87.0069 48.2381 87.0069 44.9765 87.0907L44.9917 87.0755Z" fill="#E9E6D5"/>
<path id="Vector_4" d="M104.814 67.4934L102.337 66.6324C100.745 66.0762 97.9936 64.7123 96.5229 63.8056C95.738 63.3179 94.511 62.0836 93.9395 61.2683C93.2613 57.9386 92.2935 54.8908 91.0285 51.7363C91.6762 52.163 92.1563 52.4449 92.9488 52.323C92.644 51.5153 92.1411 50.982 91.5314 50.3953L89.5577 48.4752C87.9574 46.9208 86.6847 45.0997 85.3511 43.2939L84.1547 41.6709L79.9177 35.7811L77.3191 31.9866L76.5723 31.0646C78.4317 28.9235 79.9863 26.8968 82.6154 25.6548C83.3546 26.8587 83.9642 28.0321 84.8558 29.1369L91.7219 37.6326C92.1258 38.1279 92.5754 38.7984 93.3527 38.7298C93.6728 38.4631 93.3527 37.686 93.1089 37.3126L91.821 35.362L98.4509 35.842C99.7616 35.9335 101.088 36.4287 102.368 36.7183C103.046 36.8707 103.686 37.2974 104.296 37.5869C107.504 39.1032 110.08 42.1205 110.255 45.7855C110.293 46.6084 110.872 47.4846 111.109 48.2999L111.84 50.822C112.45 52.9173 113.029 54.9365 113.059 57.1309L113.128 62.8074C113.128 63.3027 113.166 63.7522 113.197 64.217L113.418 67.8515C111.627 68.4382 106.574 68.0953 104.822 67.4858L104.814 67.4934Z" fill="#E9E6D5"/>
<path id="Vector_5" d="M144.881 84.2105L142.656 84.0353L140.751 83.86L138.106 83.5933C136.727 83.4562 135.386 83.3952 133.976 83.3724L126.424 83.2505C125.098 83.2276 123.81 83.2124 122.492 83.1133L119.207 82.8695L114.353 82.7171H111.762L105.308 82.8924C102.618 82.9685 101.33 82.359 98.7539 82.74C100.095 82.0618 101.223 81.3685 102.351 80.5303C103.562 79.6236 106.931 76.4767 107.678 75.4634L110.07 72.187C110.642 71.4098 110.916 70.465 111.175 69.5659C115.954 68.8115 113.233 68.6515 118.377 69.6344C119.581 69.863 120.739 70.0154 121.958 70.1602L127.598 70.8536L132.551 71.3793L143.624 73.0251L145.803 73.467L148.844 74.1452L154.445 75.4634L158.636 76.3777C159.894 76.652 160.983 76.8806 162.416 76.9492C162.507 77.9244 162.652 79.1055 162.576 80.1112C162.401 82.3209 162.515 83.159 161.867 85.3839C158.149 84.8201 156.922 85.6658 152.906 85.1858L147.022 84.4848L144.881 84.2258V84.2105Z" fill="#E9E6D5"/>
<path id="Vector_6" d="M62.4495 11.5511C59.2032 9.26527 55.8882 9.83673 55.4234 7.50517L56.9094 8.31283C56.9932 8.35855 57.3285 8.09187 57.298 8.00805C57.0542 7.3223 56.0102 6.4232 55.3243 5.88222C51.8493 3.15444 52.6876 2.11057 53.3049 2.64394L54.5775 3.75638C55.4158 4.48785 56.1854 5.13551 57.4428 5.2117C56.8408 3.79448 52.9315 2.11819 54.4022 1.01336C55.9873 1.75246 57.2828 3.2154 58.9593 4.16021C58.8907 3.54303 58.6088 3.12396 58.243 2.81156L56.0025 0.914311C57.42 0.815258 58.0906 2.02676 59.1879 2.30868C59.9957 2.5144 60.4758 2.72775 60.9788 3.42112C62.0228 4.87644 63.0516 6.28605 64.2099 7.66518C65.2234 8.86906 66.6027 9.73768 67.7839 10.7587C68.7594 11.6045 69.6738 12.3969 70.7407 13.1131C73.7661 15.1475 75.3588 17.7 77.8659 20.3364C79.1843 21.7231 80.2435 23.2394 81.3104 24.8319C80.9065 25.0833 80.495 25.2891 80.2435 25.5024L78.5899 26.8815L77.0734 28.314C76.7305 27.8035 76.2732 27.7273 75.8846 27.4225C73.8499 25.83 72.5315 23.8871 70.9998 21.6927L69.1099 18.9877C67.8525 17.1819 66.5951 15.5361 65.0481 13.9817C64.2175 13.1512 63.4936 12.2902 62.4495 11.5511Z" fill="#E9E6D5"/>
<path id="Vector_7" d="M170.113 84.7515C167.484 84.5306 167.27 84.9496 163.818 84.2486C164.199 82.0619 163.994 81.1094 164.207 79.0903C165.19 78.976 165.998 78.915 166.676 78.4883C167.499 77.9626 168.299 77.4978 169.069 76.9416C170.06 76.2253 170.997 75.4862 172.026 74.8005L174.251 73.3147C176.644 71.7146 175.638 70.0154 178.031 69.4059C179.311 72.2556 175.272 78.595 173.641 80.9951L171.69 83.8601C171.294 84.4391 170.898 84.8277 170.121 84.7592L170.113 84.7515Z" fill="#E9E6D5"/>
<path id="Vector_8" d="M164.009 78.1379C163.453 77.4217 164.162 76.1797 163.308 76.0273L160.717 75.5625L157.707 74.9377L150.102 73.2005L149.02 72.949L146.223 72.3395C144.021 71.8594 141.948 71.4861 139.646 71.2118C139.814 71.0365 140.188 70.9451 140.538 70.9527L146.863 71.0365L164.924 71.0899C166.547 71.0899 167.637 70.4727 168.833 72.9033L169.877 75.0291L166.852 77.1093C165.983 77.7112 165.114 78.1836 164.009 78.1531V78.1379Z" fill="#8E94CA"/>
<path id="Vector_9" d="M18.7307 86.0469C16.4979 86.405 13.1296 86.0469 11.8341 86.3517C10.9196 86.5651 9.97468 86.527 9.19738 85.9479C9.06783 85.2926 9.67748 84.6526 10.1195 84.2792C11.3921 83.2201 12.7333 83.0144 14.326 82.9229L16.2921 82.8086C21.1617 82.5267 20.6968 79.0065 25.1853 77.3379C26.115 76.995 27.4867 77.4369 27.822 78.0693C27.883 78.1836 27.7992 78.5417 27.7839 78.6332C27.7687 78.7551 28.1649 78.8618 28.2869 78.816L29.7881 78.2217C29.5062 79.8218 29.6433 81.2619 29.9253 82.7705C29.3766 82.6867 28.8051 82.6791 28.424 82.9229C27.0523 83.8068 25.6197 84.1497 24.1337 84.7135C23.0134 85.1402 21.9618 85.5212 20.7273 85.7193L18.7231 86.0393L18.7307 86.0469Z" fill="#E9E6D5"/>
<path id="Vector_10" d="M90.0528 33.16L88.0715 30.8361L87.0808 29.556L87.9496 27.6664C86.9894 27.5597 86.4788 27.3997 86.0139 26.7673C85.5567 26.1501 85.3967 25.411 85.6939 24.55L87.8505 25.6624C89.6794 24.0624 88.3382 20.4279 86.9436 18.9421L88.5135 17.8448C90.4262 20.0545 93.1468 23.75 93.4592 26.6225C93.6269 28.1312 92.6286 29.1903 91.295 29.3122C90.6091 29.3731 89.9309 29.8989 89.6642 30.3713C90.1748 30.5694 90.411 30.7294 90.6168 31.1028C91.2493 32.2685 91.9656 33.2591 92.7962 34.3868C91.6989 34.6534 90.7996 34.021 90.0528 33.1524V33.16Z" fill="#E9E6D5"/>
<path id="Vector_11" d="M75.8395 72.0042C75.89 72.0042 75.9309 71.9632 75.9309 71.9127C75.9309 71.8622 75.89 71.8213 75.8395 71.8213C75.789 71.8213 75.748 71.8622 75.748 71.9127C75.748 71.9632 75.789 72.0042 75.8395 72.0042Z" fill="white"/>
<path id="Vector_12" d="M68.234 94.6036L59.4551 94.6569L54.5551 94.5731L49.1902 94.6645L33.4538 94.6188L24.2939 94.5655L8.83177 94.4512C8.51933 94.4512 8.12306 94.0931 8.10782 93.8645C8.09258 93.6359 8.51933 93.2549 8.78605 93.2549L12.2382 93.2016L14.4557 93.2321L17.4963 93.2168L21.581 93.1711L24.05 93.1483L26.801 93.0721L31.663 93.0949L38.3767 93.0568L40.518 93.0263L45.0751 93.0568H47.8719L51.1106 93.034L59.6837 93.0568L61.0783 93.0111H63.7912H68.7522L77.8511 93.0492C78.2703 93.0492 78.7504 93.2321 78.9333 93.4911C79.1161 93.7502 79.139 94.4207 78.857 94.6722L68.2188 94.6188L68.234 94.6036Z" fill="white"/>
<path id="Vector_13" d="M103.579 94.0702C101.666 94.4283 99.9515 94.6569 98.0768 94.6721L84.3065 94.7636C83.8797 94.7636 80.3514 94.7636 80.8848 93.8568C81.1897 93.3387 83.9102 93.2701 84.6646 93.2778L91.3326 93.3235H93.0854L96.8042 93.4073L99.2733 93.4911C100.774 93.5368 102.161 93.674 103.579 94.0778V94.0702Z" fill="white"/>
</g>
</g>
</g>
<defs>
<clipPath id="clip0_758_2217">
<rect width="183" height="99" fill="white"/>
</clipPath>
</defs>
</svg>
